<svg viewBox="0 0 1024 1024" xmlns="http://www.w3.org/2000/svg" xmlns:xlink="http://www.w3.org/1999/xlink"><clipPath id="a"><rect height="1024" rx="256" width="1024"/></clipPath><clipPath id="b"><path d="m0 0h1024v1024h-1024z"/></clipPath><g clip-path="url(#a)"><g clip-path="url(#b)"><path d="m1024 0v1024h-1024v-1024zm-563.99 268.01c-.45-8.92.62-18.06-.04-26.98-1.45-19.7-13.74-53.49-12.13-70.07.69-7.13 9.15-12.33 15.56-12.66 4.16-.21 4.17 3.4 5.2 6.1 10.71 28.22 9.84 63.89 21.57 92.41.68 1.36 1.65 2.52 3.16 2.99 3.56 1.09 26.34-3.78 26.72-8.77.76-10.09-14.76-43.18-18.59-55.5-10.83-34.74-17.9-72.93-31.44-106.56-3.13-7.78-10.02-28.19-20.18-14.12-11.15 15.44 23.89 52.15-9.84 53.15-2.03-6.38-3.35-38.62-9.14-39.95-13.24 2.4-11.66 14.09-10.94 25.02 1.94 29.22 9.37 61.98 12.06 91.93 1.78 19.81 2.74 39.85 2.24 59.71 1.97 6.18 20.16 2.22 25.78 3.3zm-109.76-102.25c-1.89-2.93-.26-9.34 2.89-11.61 6.8-4.9 16.12 0 23.85.02 11.07.04 26.34-6.45 32.72-15.62 3.1-11.49-14.71-20.75-24.6-20.6-27.33.41-65.15 32.31-57.74 61.67 4.77 18.9 24.52 14.32 32.69 25.34 7.74 10.45-1.14 27.51-15.18 19.16-9.06-5.39-8.58-34.9-28.94-20.79-9.13 48.24 70.92 98.87 92.45 40.04 8.94-24.44 3.48-55.13-21.31-67.43-6.99-3.47-35.77-8.57-36.81-10.18zm205.98 111.99c24.68.44 20.21-23 17.18-40.16-2.92-16.52-8.2-43.68-12.75-59.25-4.86-16.65-13.34-20.63-30.67-20.34l26.24 119.76zm53.17-69.5c-4.24 1.08-9.33 12.44-8.9 16.48.62 5.83 12.65 12.81 10.58 17.31-15.45 17.98-53.9 36.38-48.21 64.08 1.28 6.23 20.54 50.6 24.32 51.77 6.98 2.14 15.02-19.05 15.02-24.88-.02-12.58-15.85-30.45-13.9-37.55 3.92-14.3 59.71-31.77 53.29-60.02-1.62-7.13-24.93-29.04-32.19-27.18zm68.6 50.75v64c0 .77-2.44 13.7-2.88 15.12-1.53 4.9-7.49 11.49-13.08 8.95-20.51-9.31 4.63-75.13 2.06-94.17-1.06-7.8-6.78-11.38-14.76-10.7-6.37 2.06-16.77 39.65-18.77 47.37-7.22 27.89-21.82 90.32 9.33 107.53 25.55 14.12 47.37-9.05 53.16-33.03 4.66-19.3 5.23-72.46 2.35-92.5-1.41-9.8-3.5-11.88-12.78-15.28l-4.64 2.71zm-197.99 65.01c1.03-29.89-25.21-51.87-54.84-47.83-47.42 6.46-33.04 82.05 7.96 93.7 10.18 2.89 25.96 4.76 30.31-6.9-7.31-6.41-13.47-18.92-21.51-23.89-6.49-4.01-11.44-2.14-17.41-4.59-20.04-8.22-8.76-44.57 13.04-35.16 4.67 2.02 4.83 10.58 7.58 14.54 5.51 7.96 25.53 10.58 34.88 10.13zm270.01 83.98c4.95-20.8 9.4-77.52-10.06-90.95-24.58-16.95-38.23 21.36-39.92 39.99-2.52 27.75 6.57 90.32 45.95 60.97.75 10.79-21.66 36.99-4.54 41.7 13.08 3.6 16.42-23.73 24.54-29.7 3.28 21.54-15.75 47.39 14.01 56 3.43-3.49 1.68-59.53 7.5-71.51 3.74-7.7 55.69-29.58 22.56-39.65-11.45-3.48-22.16 14.46-32.03 19.16 4.38-17.11 24.86-34.97-2.89-41.93l-25.11 55.92zm-262.02 36.02c.58 3.12-1.83 6.34-1.75 9.08.16 5.13 17.71 27.94 23.79 24.06 1.43-.91 13.36-25.07 16.34-29.77 16.62-26.24 41.35-51.37 23.98-84.74-10.63-20.42-32.48-32.13-55.19-24.86-6.23 4.47 5.51 27.68 13.69 28.04 2.78.12 5.02-2.64 9.07-.91 3.08 1.31 12.36 11.67 11.81 15.61-2.36 16.73-13.14-1.75-17.72-5.54-12.96-10.72-22.7-16.92-39.36-9.32-35.3 16.09-24.13 79.84 15.34 78.36zm-23.77 21.73c3.93 2.23 8.26-.97 7.45-6.28-.83-5.44-22.31-44.06-26.85-49.3-9.04-10.43-19.08-5.3-22.74-19.25-25.23-4.39-3.1 15.06-4.21 19.89-3.14 4.28-16.11 7.5-15.56 13.82.17 1.95 11.06 19.94 12.74 21.42 5.05 4.46 13.8-4.42 18.93-1.17 4.04 4.88 10.14 25.73 18.93 23.11 11.88-3.55-9.46-27.69-7.94-33.97 6.88 3.21 16.36 30.1 19.24 31.73zm-158.91-18.42c9.11-9.03 10.77-38.89-2.73-42.9-21.09-6.27-22.48 15.3-4.69 15.67 4.52 15.47-15.89 12.27-27.01 15.79-18.08 5.73-71.88 42.28-85.87 56.13-2.41 2.39-8.04 8.58-8.64 11.47-1.18 5.64 13.06 42.69 16.13 51.02 3.94 10.69 33.84 85.89 38.68 87.38 6.3 1.94 9.59-9.3 11.75-13.94 8.02-17.22 30.82-80.16 32.9-97.11 2.52-20.53-20.06-40.05-15.43-55.41 3.37-11.17 36.02-19.29 44.91-28.09zm574.66 102.68c1.21-9.29-3.27-18.16-3.95-27.03-2.44-31.92 8.01-63.71 9.59-95.55-1.17-8.22-15.8-12.33-22.67-14.74-26.92 27.22-42.42 50.99-76.41 70.82-1.64.96-3.26-.38-2.61 3.5 1 6 25.34 24.68 31.23 25.05 11.35.7 8.82-24.23 23.56-15.77 11.29 6.48-3.97 17.46 2.3 27.72 1.6 2.62 37.57 27.9 38.96 26zm-271.99-124c-4.48 4.53 20.68 57.73 24.04 66.96 14.92 40.94 27.82 84.55 39.4 126.6 3.85 13.97 15.93 78.17 24.57 83.45 10.84 6.62 12.48-11.21 13.73-18.29 3.62-20.54 3.26-44.08-1.03-64.42-2.05-9.72-12.96-32.8-12.55-39.45.34-5.56 7.69-6.77 10.82-10.9 13.09-17.24.84-76.71-6.91-97.01-2.99-7.82-14.95-32.89-22.08-35.9-10.77-4.55-19.35 3.29-22.67 2.66-2.31-.44-5.49-5.7-8.58-7.42-11.26-6.28-26.12-6.77-38.72-6.29zm7.99 144c10.72 22.67-27.51 44.37-2.07 61.22 5.59 1.38 17.8-29.7 19.18-35.12 3.32-13.02 3.63-30.08-5.1-41.08-2.93-3.69-10.89-7.97-11.67-10.33-2.36-7.1-1.24-17.51-5.35-28.65-3.66-9.92-17.05-26.08-18.48-31.52-1.97-7.53.04-15.96-2.4-25.6-1.21-4.79-12.03-29.73-15.41-30.72-7-2.05-13.32 9.6-16.74 14.75-8.38 12.61-13.3 26.56-23.89 38.1-4.66 5.08-16.71 11.64-15.79 17.5.65 4.13 27.45 42.26 31.11 43.23 3.07.81 3.56-.01 5.6-1.81 6.05-5.33 16.5-32.2 23-35.05 13.53 3.2 19.65 18.63 17.57 31.59s-19.55 31.28-19.32 42.53c.13 6.34 14.22 24.63 19.69 20.88 1.99-4.99 13.32-35.56 20.08-29.92zm-284.58-123.58c-12.16 3.65-30.86 46.16-35.44 58.55-12.92 34.91-20.74 78.92-23.94 116.06-2.36 27.28-8.18 75.46 16.96 92.99s39.72-3.67 49.36-24.67c25.74-56.06 30.31-141.31 25.73-202.43-1.34-17.92-7.84-47.96-32.67-40.5zm416.36 141.81c.8.8.09 5.54 1.14 7.79 2.58 5.49 7.67 10.06 12.43 13.72l5.64-1.77c.39-16.81 24.85-67.53 22.01-80.22-1.21-5.4-17.89-18.53-23.08-14.91-5.77 4.03-7.18 46.79-15.83 52.23-10.74 6.75-10.42-18.69-10.15-24.16 1.19-23.95 19.81-57.7-14.72-66.82-2.46.77-2.41 3.03-3.19 4.93-4.24 10.34-2.91 75.25.51 87.46 2.83 10.11 7.8 16.67 17.51 20.56 2.3.92 7.05.52 7.73 1.2zm-286.31-107.78c-17.14 3.48-27.94 21.61-25.33 38.43 2.32 14.93 24.66 38.13 39.6 25.84 7.21-21.57-19.11-19.2-19.74-31.91-.16-3.29 3.31-9.88 6.05-7.87 9.75 10.93 20.4 50.78 36.39 24.47 17.27-28.43-3.15-55.83-36.96-48.96zm50.54 79.57c13.29-4.7 8.18 9.45 11.03 15.96 4.93 11.26 22.64 19 24.84-1.2 4.52-41.46-56-51.5-57.75-11.49-.48 11.01 9.46 19.65 3.85 30.71-21.03-1.21 2.23-24.06-11.96-31.01-16.4-8.03-19.17 19.37-18.01 30.03 2.46 22.55 23.94 41.76 44.98 24.97 16.07-12.82 9.77-41.29 3.01-57.97zm293.99 11.98 1.86 7.18c19.19 6.81 25.95-30.43 9.05-33.2-23.36-3.84-44.14 41.8-42.81 60.79.85 12.11 12.8 19.75 12.01 34.16-.59 10.79-8.61 19.36-12.12 29.05-11.36-1.33 1.62-15.29-4.3-24.64-9.82-15.51-26.61 16.92-29.74 25.57-7.43 20.53-13.35 72.23 22.63 64.61 36.94-7.83 57.27-103.93 46.92-134.01-3.64-10.57-19.23-20.35-3.49-29.53zm-411.28 166.7c5.68-6.71 18.54-13.36 25.32-19.68 19.47-18.18 32.91-49.39 33.95-76.05 2.2-56.42-46.45-110.13-76.9-36.91-8.13 19.55-12.06 25.53 5.87 39.98 19.26 15.53 12.83-17.17 24.12-18.19 10.36.36 13.86 14.41 13.85 23.14 0 27.62-32.55 40.96-47.74 59.18-8.87 10.64-23.89 35.08-16.91 48.58 3.2 6.2 37.82 36.31 44.58 39.4 9.89 4.53 13.58 1.11 15.04-9.27 3.03-21.49-10.33-26.18-25.5-37.23-2.2-3.75 1.86-10.03 4.33-12.95zm188.87-117.1c2.6-9.95-4.9-26.85-16.38-25.61-9.05.98-11.92 10.42-20.51-3.79-4.69-1.59-16.98 5.17-17.89 9.69l3.22 12.09c-11.16 3.96-40.17 17.84-44.49 28.54-6.14 15.23 3.21 54.6 24.44 38.45 8.86-6.74 1.2-10.82.31-16.45-1.73-10.93 25.52-18.8 32.76-24.49 3.99 16.24 21.41 15.39 29.1 2.94l-3.98-14.81 13.43-6.56zm20.02 26.76c-28.71 1.02-9.11 32.97 1.31 33.54 2.76.15 12.07-3.73 14.21-5.78 8.41-8.07-7.11-28.06-15.52-27.76zm-34.1 16.02c-7.09 1.42-23.95 12.25-32.14 15.97-5.71 2.59-33.57 12.78-35.4 14.59-4.45 4.4-.81 21.2 2.99 25.1 4.76 4.88 15.92-.56 21.58-2.52 20.55-7.11 41.58-19.52 61.5-28.51 6.48-7.02-6.18-27.12-18.53-24.64zm16.51 69.6c6.97-12.21 49.88-27.55 54.98-35.99 3.27-5.41.63-16.73-5.99-18-16.76-3.22-36.45 17.28-50.38 25.62-20.54 12.3-42.48 22.33-62.59 35.4-5.59 6.18 2.06 27.47 8.05 30.06s32.73-7.16 41.17-8.82c13.47-2.64 94.63-12.84 96.84-21.59 1.77-7.01-5.87-22.11-12.94-22.49-19.18-1.03-48.39 16.82-69.15 15.8zm-103.97 136.02c2.89 2.15 34.92-19.96 35.19-26.97-9.58-26.53-17.12-56.44-29.5-81.74-3.32-6.8-6.63-18.91-16.24-16.99-13.92 2.79-47.12 51.17-58.43 63.75-11.26 12.52-33.01 21.79-28.58 42.51 4.01 18.74 12.4 14.36 24.14 17.85 18.53 5.5.51 45.96-20.56 36.55-11.6-5.18-2.17-20.18-6.25-27.62-3.11-5.67-13.93-13.02-20.47-11.45-9.43 14.79-10.53 35.88-1 50.79 30.54 47.78 116.07-18.72 79.68-63.68-4.04-4.99-13.07-7.96-12.1-13.94l25.16-23.02 11.28 14.61 17.69 39.34zm145.98-81.99c.12-3.25-.14-6.48-1.52-9.49-10.01-21.94-80.92-15.74-92.59 4.37-6.24 10.76 2.55 11.65 3.8 16.5.92 3.56-3.05 8.6-1.51 13.33 2.35 7.25 20.8 1.39 26.73 1.21 34.3-1.07 75.84 2.03 107.8-12.2 13-5.79 31.47-17.88 21.07-34.5-7.9-12.63-52.8-20.29-55.21-1.95-1.88 14.35 17.51 8.94 17.39 13.74l-25.95 9.01zm-87.83 32.16c-.69 15.09 4.24 20.31 18.85 21.8 35.31 3.61 72.81-2.36 107.88-2.05 16.23.15 45.29 6.1 60.19 4.17s3.82-22.53-4.14-24.05c-50.64-.96-101.41 1.1-152.04.04-10.07-.21-19.85-4.72-30.73.09z"/><g fill="#fff"><path d="m331.4 446.42c24.83-7.45 31.33 22.58 32.67 40.5 4.58 61.11.01 146.37-25.73 202.43-9.64 21-23.92 42.42-49.36 24.67s-19.32-65.71-16.96-92.99c3.21-37.14 11.03-81.14 23.94-116.06 4.58-12.38 23.28-54.9 35.44-58.55zm5.63 24c-6.54-.5-11.27 13.36-13.09 18.52-6.75 19.15-20.5 86.95-10.82 102.94 4.24 7.01 8.6 4.21 12.89-.88 13.38-15.88 22.64-96.53 15.47-115.46-.68-1.8-2.65-4.98-4.44-5.12z"/><path d="m305.32 447.32c-8.89 8.81-41.54 16.93-44.91 28.09-4.64 15.36 17.95 34.88 15.43 55.41-2.08 16.95-24.88 79.89-32.9 97.11-2.16 4.64-5.45 15.88-11.75 13.94-4.84-1.49-34.74-76.69-38.68-87.38-3.07-8.33-17.3-45.37-16.13-51.02.6-2.89 6.23-9.08 8.64-11.47 13.99-13.84 67.79-50.39 85.87-56.13 11.13-3.53 31.53-.33 27.01-15.79-17.78-.37-16.4-21.94 4.69-15.67 13.5 4.01 11.85 33.87 2.73 42.9z"/><path d="m482.03 870-17.69-39.34-11.28-14.61-25.16 23.02c-.97 5.97 8.05 8.95 12.1 13.94 36.4 44.96-49.14 111.46-79.68 63.68-9.53-14.91-8.42-36 1-50.79 6.54-1.56 17.36 5.79 20.47 11.45 4.08 7.43-5.35 22.44 6.25 27.62 21.07 9.41 39.09-31.06 20.56-36.55-11.74-3.48-20.13.89-24.14-17.85-4.43-20.71 17.33-29.99 28.58-42.51 11.31-12.58 44.5-60.96 58.43-63.75 9.61-1.92 12.92 10.19 16.24 16.99 12.38 25.31 19.92 55.21 29.5 81.74-.27 7.01-32.3 29.12-35.19 26.97z"/><path d="m607.99 426c12.6-.48 27.46 0 38.72 6.29 3.09 1.72 6.26 6.98 8.58 7.42 3.33.63 11.9-7.21 22.67-2.66 7.13 3.02 19.1 28.09 22.08 35.9 7.76 20.29 20 79.76 6.91 97.01-3.13 4.13-10.48 5.34-10.82 10.9-.41 6.64 10.5 29.72 12.55 39.45 4.29 20.34 4.65 43.88 1.03 64.42-1.25 7.08-2.89 24.92-13.73 18.29-8.63-5.28-20.72-69.47-24.57-83.45-11.57-42.05-24.47-85.67-39.4-126.6-3.37-9.23-28.53-62.44-24.04-66.96zm73.42 46.62c-13.01-11.35-12.06 16.46-11.2 24.16s11.07 46.75 20.57 45.12c15.62-2.68-.63-61.66-9.37-69.28z"/><path d="m394.7 738.7c-2.47 2.92-6.54 9.2-4.33 12.95 15.17 11.05 28.53 15.74 25.5 37.23-1.46 10.38-5.15 13.8-15.04 9.27-6.76-3.1-41.37-33.2-44.58-39.4-6.98-13.5 8.04-37.94 16.91-48.58 15.19-18.22 47.73-31.55 47.74-59.18 0-8.72-3.5-22.77-13.85-23.14-11.28 1.01-4.85 33.72-24.12 18.19-17.93-14.45-14-20.43-5.87-39.98 30.46-73.23 79.1-19.51 76.9 36.91-1.04 26.66-14.48 57.87-33.95 76.05-6.77 6.32-19.63 12.97-25.32 19.68z"/><path d="m350.25 165.76c1.03 1.61 29.82 6.71 36.81 10.18 24.8 12.3 30.26 42.99 21.31 67.43-21.53 58.83-101.58 8.2-92.45-40.04 20.36-14.12 19.89 15.4 28.94 20.79 14.04 8.35 22.92-8.71 15.18-19.16-8.16-11.02-27.92-6.44-32.69-25.34-7.4-29.36 30.42-61.26 57.74-61.67 9.89-.15 27.7 9.11 24.6 20.6-6.37 9.17-21.65 15.66-32.72 15.62-7.72-.03-17.04-4.92-23.85-.02-3.15 2.27-4.78 8.67-2.89 11.61z"/><path d="m460.01 268.01c-5.62-1.08-23.8 2.88-25.78-3.3.5-19.86-.46-39.89-2.24-59.71-2.69-29.95-10.12-62.72-12.06-91.93-.73-10.93-2.3-22.62 10.94-25.02 5.79 1.32 7.12 33.57 9.14 39.95 33.73-1-1.31-37.71 9.84-53.15 10.16-14.07 17.04 6.34 20.18 14.12 13.54 33.62 20.61 71.82 31.44 106.56 3.84 12.31 19.36 45.41 18.59 55.5-.38 4.99-23.16 9.86-26.72 8.77-1.51-.46-2.48-1.63-3.16-2.99-11.74-28.51-10.87-64.19-21.57-92.41-1.03-2.7-1.04-6.31-5.2-6.1-6.41.33-14.87 5.53-15.56 12.66-1.61 16.58 10.68 50.37 12.13 70.07.65 8.92-.41 18.06.04 26.98z"/><path d="m615.98 570c-6.76-5.64-18.09 24.93-20.08 29.92-5.46 3.75-19.56-14.54-19.69-20.88-.23-11.25 17.21-29.34 19.32-42.53s-4.05-28.4-17.57-31.59c-6.5 2.85-16.95 29.71-23 35.05-2.04 1.8-2.52 2.62-5.6 1.81-3.66-.96-30.46-39.09-31.11-43.23-.92-5.86 11.13-12.42 15.79-17.5 10.59-11.55 15.51-25.49 23.89-38.1 3.42-5.15 9.74-16.8 16.74-14.75 3.38.99 14.2 25.93 15.41 30.72 2.44 9.64.43 18.07 2.4 25.6 1.42 5.45 14.82 21.6 18.48 31.52 4.11 11.14 2.99 21.55 5.35 28.65.78 2.36 8.75 6.64 11.67 10.33 8.73 11.01 8.43 28.06 5.1 41.08-1.38 5.42-13.59 36.5-19.18 35.12-25.44-16.85 12.79-38.54 2.07-61.22z"/><path d="m488 444.01c-39.48 1.48-50.64-62.26-15.34-78.36 16.66-7.6 26.4-1.39 39.36 9.32 4.58 3.79 15.36 22.27 17.72 5.54.56-3.95-8.72-14.3-11.81-15.61-4.05-1.73-6.29 1.04-9.07.91-8.18-.37-19.91-23.57-13.69-28.04 22.71-7.26 44.56 4.44 55.19 24.86 17.37 33.37-7.36 58.5-23.98 84.74-2.98 4.71-14.91 28.86-16.34 29.77-6.08 3.87-23.63-18.93-23.79-24.06-.09-2.74 2.33-5.96 1.75-9.08zm-2.68-49.67c-2.06.71-3.03 2.37-3.9 4.2-3.47 13.35 7.53 24.15 21.52 21.41 19.26-3.77 2.39-32.53-17.63-25.61z"/><path d="m805.98 572c-15.73 9.18-.14 18.96 3.49 29.53 10.35 30.07-9.98 126.18-46.92 134.01-35.98 7.62-30.06-44.08-22.63-64.61 3.13-8.66 19.92-41.08 29.74-25.57 5.92 9.34-7.06 23.3 4.3 24.64 3.51-9.7 11.53-18.27 12.12-29.05.79-14.42-11.16-22.06-12.01-34.16-1.33-18.99 19.45-64.63 42.81-60.79 16.89 2.77 10.14 40.01-9.05 33.2l-1.86-7.18z"/><path d="m678 259 4.64-2.71c9.28 3.4 11.37 5.48 12.78 15.28 2.87 20.04 2.31 73.2-2.35 92.5-5.79 23.99-27.61 47.15-53.16 33.03-31.16-17.21-16.55-79.65-9.33-107.53 2-7.71 12.4-45.31 18.77-47.37 7.99-.68 13.71 2.89 14.76 10.7 2.58 19.04-22.57 84.86-2.06 94.17 5.59 2.54 11.55-4.05 13.08-8.95.44-1.42 2.88-14.35 2.88-15.12v-64z"/><path d="m586 733.98c20.76 1.02 49.98-16.83 69.15-15.8 7.07.38 14.7 15.48 12.94 22.49-2.2 8.75-83.37 18.95-96.84 21.59-8.44 1.66-35.27 11.37-41.17 8.82s-13.65-23.88-8.05-30.06c20.11-13.07 42.05-23.1 62.59-35.4 13.93-8.34 33.62-28.85 50.38-25.62 6.61 1.27 9.26 12.59 5.99 18-5.1 8.43-48.01 23.78-54.98 35.99z"/><path d="m628.01 788.01 25.95-9.01c.12-4.8-19.27.61-17.39-13.74 2.41-18.33 47.31-10.67 55.21 1.95 10.4 16.63-8.06 28.71-21.07 34.5-31.96 14.23-73.5 11.13-107.8 12.2-5.92.18-24.37 6.05-26.73-1.21-1.53-4.73 2.43-9.76 1.51-13.33-1.24-4.84-10.04-5.74-3.8-16.5 11.67-20.11 82.58-26.31 92.59-4.37 1.38 3.02 1.64 6.24 1.52 9.49zm-30.03-1.97c-11.64-4.25-24.73-7.56-33.94 2.96.05 5.74 30.1 7.16 33.07 3.11z"/><path d="m747.76 588.23c-.68-.68-5.44-.28-7.73-1.2-9.71-3.89-14.68-10.45-17.51-20.56-3.42-12.21-4.75-77.12-.51-87.46.78-1.9.73-4.16 3.19-4.93 34.54 9.13 15.92 42.87 14.72 66.82-.27 5.48-.59 30.91 10.15 24.16 8.65-5.44 10.05-48.21 15.83-52.23 5.19-3.62 21.88 9.5 23.08 14.91 2.84 12.69-21.61 63.41-22.01 80.22l-5.64 1.77c-4.77-3.66-9.86-8.23-12.43-13.72-1.05-2.25-.34-6.99-1.14-7.79z"/><path d="m750.02 407.99 25.11-55.92c27.76 6.97 7.28 24.83 2.89 41.93 9.87-4.71 20.58-22.64 32.03-19.16 33.13 10.07-18.81 31.95-22.56 39.65-5.83 11.98-4.07 68.02-7.5 71.51-29.76-8.61-10.72-34.46-14.01-56-8.11 5.97-11.46 33.3-24.54 29.7-17.12-4.71 5.29-30.91 4.54-41.7-39.37 29.35-48.46-33.22-45.95-60.97 1.69-18.63 15.35-56.94 39.92-39.99 19.47 13.43 15.01 70.15 10.06 90.95zm-27.58-55.5c-6.77 8.92-6.61 58.52 6.53 55.51 4.09-.94 8.89-24.2 8.82-28.79-.1-5.88-7.45-37.12-15.34-26.72z"/><path d="m609.4 208.25c7.26-1.85 30.57 20.05 32.19 27.18 6.42 28.25-49.37 45.72-53.29 60.02-1.94 7.1 13.89 24.97 13.9 37.55 0 5.83-8.04 27.03-15.02 24.88-3.78-1.16-23.04-45.54-24.32-51.77-5.68-27.69 32.76-46.1 48.21-64.08 2.06-4.5-9.97-11.48-10.58-17.31-.43-4.04 4.66-15.4 8.9-16.48z"/><path d="m583.57 621.6-13.43 6.56 3.98 14.81c-7.68 12.45-25.1 13.29-29.1-2.94-7.24 5.69-34.48 13.56-32.76 24.49.89 5.64 8.55 9.72-.31 16.45-21.24 16.15-30.59-23.22-24.44-38.45 4.32-10.7 33.33-24.59 44.49-28.54l-3.22-12.09c.92-4.52 13.2-11.28 17.89-9.69 8.59 14.22 11.46 4.77 20.51 3.79 11.48-1.24 18.98 15.66 16.38 25.61z"/><path d="m480.01 324.01c-9.34.45-29.37-2.17-34.88-10.13-2.74-3.96-2.9-12.53-7.58-14.54-21.8-9.41-33.08 26.93-13.04 35.16 5.97 2.45 10.92.58 17.41 4.59 8.05 4.97 14.21 17.47 21.51 23.89-4.34 11.67-20.13 9.8-30.31 6.9-40.99-11.64-55.37-87.23-7.96-93.7 29.63-4.04 55.87 17.94 54.84 47.83z"/><path d="m511.99 560.02c6.76 16.68 13.07 45.14-3.01 57.97-21.04 16.79-42.53-2.42-44.98-24.97-1.16-10.66 1.62-38.06 18.01-30.03 14.19 6.95-9.07 29.8 11.96 31.01 5.61-11.06-4.33-19.69-3.85-30.71 1.75-40.01 62.27-29.97 57.75 11.49-2.2 20.2-19.91 12.46-24.84 1.2-2.85-6.51 2.26-20.66-11.03-15.96z"/><path d="m540.18 820.17c10.89-4.8 20.66-.3 30.73-.09 50.63 1.06 101.4-1 152.04-.04 7.96 1.53 18.3 22.22 4.14 24.05-14.9 1.93-43.96-4.02-60.19-4.17-35.06-.32-72.56 5.66-107.88 2.05-14.6-1.49-19.53-6.71-18.85-21.8z"/><path d="m461.45 480.45c33.81-6.87 54.22 20.53 36.96 48.96-15.98 26.32-26.64-13.53-36.39-24.47-2.74-2.01-6.21 4.58-6.05 7.87.63 12.71 26.96 10.34 19.74 31.91-14.94 12.29-37.28-10.91-39.6-25.84-2.61-16.82 8.18-34.95 25.33-38.43zm12.56 13.56c-2.88 2.58 15.07 28.64 13.95 11.11-.44-6.96-6.83-12.75-13.95-11.11z"/><path d="m556.23 277.75-26.24-119.76c17.33-.28 25.81 3.69 30.67 20.34 4.54 15.57 9.82 42.73 12.75 59.25 3.03 17.16 7.5 40.61-17.18 40.16z"/><path d="m569.49 664.38c12.35-2.47 25.01 17.62 18.53 24.64-19.91 8.98-40.95 21.4-61.5 28.51-5.66 1.96-16.82 7.4-21.58 2.52-3.8-3.9-7.45-20.7-2.99-25.1 1.83-1.81 29.69-12 35.4-14.59 8.19-3.72 25.05-14.55 32.14-15.97z"/><path d="m879.98 550c-1.39 1.89-37.36-23.39-38.96-26-6.27-10.27 9-21.24-2.3-27.72-14.73-8.46-12.21 16.48-23.56 15.77-5.89-.36-30.23-19.04-31.23-25.05-.65-3.88.97-2.54 2.61-3.5 33.99-19.83 49.49-43.6 76.41-70.82 6.87 2.41 21.5 6.52 22.67 14.74-1.58 31.84-12.03 63.63-9.59 95.55.68 8.87 5.15 17.74 3.95 27.03zm-18.55-113.39c-3.2-2.65-7.59-3.36-11.37-1.65-5.1 2.31-24.06 27.47-32.03 34.06-5.46 4.52-26.18 15.45-26.15 20 .03 3.59 19.81 16.27 23.13 16.25 10.23-.04 10.62-25.05 28.9-10.19 8.5 6.91.42 10.84.1 18.15-.43 9.77 21.07 18.87 27.97 24.77.78-12.09-2.39-22.75-1.95-34.99.36-9.97 12.04-52.22 5.53-56.6-1.54-1.03-5.55-.24-8.7-2.24-2.8-1.78-3.63-6.06-5.43-7.55z"/><path d="m464.23 465.74c-2.89-1.64-12.37-28.52-19.24-31.73-1.52 6.28 19.82 30.42 7.94 33.97-8.79 2.63-14.89-18.23-18.93-23.11-5.13-3.25-13.88 5.63-18.93 1.17-1.68-1.48-12.57-19.47-12.74-21.42-.55-6.32 12.42-9.54 15.56-13.82 1.11-4.83-21.02-24.28 4.21-19.89 3.67 13.95 13.7 8.82 22.74 19.25 4.54 5.24 26.02 43.86 26.85 49.3.81 5.31-3.52 8.51-7.45 6.28z"/><path d="m603.59 648.36c8.41-.3 23.94 19.69 15.52 27.76-2.13 2.05-11.45 5.93-14.21 5.78-10.42-.57-30.03-32.52-1.31-33.54z"/></g><path d="m337.03 470.42c1.8.14 3.76 3.32 4.44 5.12 7.17 18.93-2.09 99.58-15.47 115.46-4.29 5.09-8.65 7.89-12.89.88-9.68-15.99 4.07-83.79 10.82-102.94 1.82-5.16 6.55-19.02 13.09-18.52z"/><path d="m681.41 472.62c8.74 7.63 24.99 66.61 9.37 69.28-9.5 1.63-19.72-37.47-20.57-45.12s-1.81-35.52 11.2-24.16z"/><path d="m485.32 394.34c20.02-6.92 36.88 21.84 17.63 25.61-13.99 2.74-24.99-8.06-21.52-21.41.87-1.83 1.84-3.49 3.9-4.2z"/><path d="m597.98 786.04-.87 6.07c-2.97 4.05-33.02 2.63-33.07-3.11 9.22-10.52 22.31-7.2 33.94-2.96z"/><path d="m722.44 352.49c7.9-10.41 15.24 20.84 15.34 26.72.08 4.59-4.72 27.86-8.82 28.79-13.13 3.01-13.29-46.59-6.53-55.51z"/><path d="m474.01 494.01c7.11-1.65 13.5 4.15 13.95 11.11 1.12 17.54-16.83-8.52-13.95-11.11z"/><path d="m861.43 436.61c1.8 1.49 2.63 5.77 5.43 7.55 3.15 2.01 7.17 1.21 8.7 2.24 6.51 4.38-5.17 46.64-5.53 56.6-.44 12.23 2.72 22.89 1.95 34.99-6.9-5.9-28.41-15-27.97-24.77.32-7.31 8.4-11.24-.1-18.15-18.28-14.85-18.67 10.15-28.9 10.19-3.32.01-23.1-12.66-23.13-16.25-.04-4.56 20.69-15.49 26.15-20 7.97-6.59 26.93-31.75 32.03-34.06 3.79-1.72 8.17-1.01 11.37 1.65zm-15.43 37.39c1.07.52 10.95 9.26 11.98 8-1.33-6.14 11.71-36.23 2.99-37.99-3.19-.21-5.01 3-6.92 5.04-2.73 2.92-15.74 23.01-14.05 24.94 1.69.42 4.93-.51 6 0-6.04-2.42 11-25.26 13.99-21.99l-4.94 20.04c-1.61 2.25-7.08 2.74-9.05 1.95z"/><path d="m846 474c-1.07-.52-4.31.42-6 0-1.68-1.93 11.33-22.02 14.05-24.94 1.91-2.04 3.73-5.25 6.92-5.04 8.72 1.76-4.32 31.85-2.99 37.99-1.03 1.26-10.91-7.48-11.98-8 1.97.79 7.44.3 9.05-1.95l4.94-20.04c-2.99-3.27-20.03 19.57-13.99 21.99z" fill="#fff"/></g></g></svg>